<svg width="100" height="116" viewBox="0 0 100 116" fill="none" xmlns="http://www.w3.org/2000/svg">
<g clip-path="url(#clip0_1027_43)">
<rect width="57.735" height="57.735" transform="matrix(0.866025 0.5 -2.20305e-08 1 0.347876 28.8675)" fill="#A97835"/>
<mask id="path-3-outside-1_1027_43" maskUnits="userSpaceOnUse" x="11.2583" y="46.7184" width="28.5788" height="51.5" fill="black">
<rect fill="white" x="11.2583" y="46.7184" width="28.5788" height="51.5"/>
<path d="M12.3943 48.017L24.7463 55.1485C33.5149 60.211 38.6599 68.9375 38.6599 79.6174C38.6599 90.2972 33.4948 93.5566 24.7463 88.5057L12.3943 81.3742L12.3943 48.017ZM20.8825 60.708L20.8825 78.4846L23.5451 80.0219C27.7893 82.4722 30.0114 80.7732 30.0114 74.6242C30.0114 69.0069 27.6091 64.5916 23.5451 62.2453L20.8825 60.708Z"/>
</mask>
<path d="M12.3943 48.017L24.7463 55.1485C33.5149 60.211 38.6599 68.9375 38.6599 79.6174C38.6599 90.2972 33.4948 93.5566 24.7463 88.5057L12.3943 81.3742L12.3943 48.017ZM20.8825 60.708L20.8825 78.4846L23.5451 80.0219C27.7893 82.4722 30.0114 80.7732 30.0114 74.6242C30.0114 69.0069 27.6091 64.5916 23.5451 62.2453L20.8825 60.708Z" fill="#0088FF"/>
<path d="M12.3943 48.017L12.3943 47.4397L11.8943 47.151L11.8943 47.7283L12.3943 48.017ZM12.3943 81.3742L11.8943 81.0855L11.8943 81.6629L12.3943 81.9516L12.3943 81.3742ZM20.8825 60.708L20.8825 60.1307L20.3825 59.842L20.3825 60.4193L20.8825 60.708ZM20.8825 78.4846L20.3825 78.196L20.3825 78.7733L20.8825 79.062L20.8825 78.4846ZM12.3943 48.017L12.3943 48.5944L24.7463 55.7258L24.7463 55.1485L24.7463 54.5711L12.3943 47.4397L12.3943 48.017ZM24.7463 55.1485L24.7463 55.7258C29.0373 58.2032 32.3727 61.5354 34.6363 65.478C36.9003 69.4213 38.1599 74.0935 38.1599 79.3287L38.6599 79.6174L39.1599 79.906C39.1599 74.4614 37.847 69.4304 35.3463 65.0749C32.8453 60.7186 29.2239 57.1563 24.7463 54.5711L24.7463 55.1485ZM38.6599 79.6174L38.1599 79.3287C38.1599 84.5638 36.8951 87.9059 34.6215 89.3535C32.3511 90.7991 29.0157 90.3933 24.7463 87.9283L24.7463 88.5057L24.7463 89.083C29.2254 91.669 32.8468 92.159 35.3461 90.5676C37.8422 88.9783 39.1599 85.3507 39.1599 79.906L38.6599 79.6174ZM24.7463 88.5057L24.7463 87.9283L12.3943 80.7969L12.3943 81.3742L12.3943 81.9516L24.7463 89.083L24.7463 88.5057ZM12.3943 81.3742L12.8943 81.6629L12.8943 48.3057L12.3943 48.017L11.8943 47.7283L11.8943 81.0855L12.3943 81.3742ZM20.8825 60.708L20.3825 60.4193L20.3825 78.196L20.8825 78.4846L21.3825 78.7733L21.3825 60.9967L20.8825 60.708ZM20.8825 78.4846L20.8825 79.062L23.5451 80.5992L23.5451 80.0219L23.5451 79.4445L20.8825 77.9073L20.8825 78.4846ZM23.5451 80.0219L23.5451 80.5992C25.7728 81.8854 27.5493 82.1231 28.7549 81.1384C29.9458 80.1657 30.5114 78.0536 30.5114 74.9129L30.0114 74.6242L29.5114 74.3355C29.5114 77.3437 28.966 79.1557 27.9848 79.9572C27.0182 80.7467 25.5616 80.6088 23.5451 79.4445L23.5451 80.0219ZM30.0114 74.6242L30.5114 74.9129C30.5114 72.0164 29.8923 69.3435 28.6781 67.0444C27.4556 64.7292 25.6894 62.9059 23.5451 61.6679L23.5451 62.2453L23.5451 62.8226C25.4648 63.9309 26.9318 65.4884 27.9264 67.3718C28.9294 69.2712 29.5114 71.6146 29.5114 74.3355L30.0114 74.6242ZM23.5451 62.2453L23.5451 61.6679L20.8825 60.1307L20.8825 60.708L20.8825 61.2854L23.5451 62.8226L23.5451 62.2453Z" fill="black" mask="url(#path-3-outside-1_1027_43)"/>
</g>
<rect x="0.25" y="0.433013" width="57.1577" height="57.1577" transform="matrix(0.866025 0.5 -2.20305e-08 1 0.38137 28.7425)" stroke="black" stroke-width="0.57735"/>
<g clip-path="url(#clip1_1027_43)">
<rect width="57.735" height="57.735" transform="matrix(0.866025 0.5 -0.866025 0.5 50 0)" fill="#A97835"/>
<mask id="path-7-outside-2_1027_43" maskUnits="userSpaceOnUse" x="18.6891" y="10.7735" width="62.3538" height="36" fill="black">
<rect fill="white" x="18.6891" y="10.7735" width="62.3538" height="36"/>
<path d="M41.4817 40.4328L45.7258 36.2487L36.9172 31.1631L29.6702 33.6134L21.0217 28.6202L59.3391 17.3856L69.9895 23.5346L50.5305 45.6572L41.4817 40.4328ZM57.7175 24.1472L44.4446 28.5971L50.1702 31.9028L57.8777 24.2397L57.7175 24.1472Z"/>
</mask>
<path d="M41.4817 40.4328L45.7258 36.2487L36.9172 31.1631L29.6702 33.6134L21.0217 28.6202L59.3391 17.3856L69.9895 23.5346L50.5305 45.6572L41.4817 40.4328ZM57.7175 24.1472L44.4446 28.5971L50.1702 31.9028L57.8777 24.2397L57.7175 24.1472Z" fill="#FF8D28"/>
<path d="M41.4817 40.4328L40.8715 40.2265L40.5956 40.4986L40.9817 40.7215L41.4817 40.4328ZM45.7258 36.2487L46.336 36.455L46.612 36.183L46.2258 35.96L45.7258 36.2487ZM36.9172 31.1631L37.4172 30.8744L37.0311 30.6515L36.5599 30.8108L36.9172 31.1631ZM29.6702 33.6134L29.1702 33.9021L29.5563 34.125L30.0275 33.9657L29.6702 33.6134ZM21.0217 28.6202L20.7016 28.2562L19.8326 28.511L20.5217 28.9089L21.0217 28.6202ZM59.3391 17.3856L59.8391 17.0969L59.4764 16.8875L59.0189 17.0216L59.3391 17.3856ZM69.9895 23.5346L70.62 23.7195L70.8523 23.4554L70.4895 23.2459L69.9895 23.5346ZM50.5305 45.6572L50.0305 45.9458L50.7197 46.3437L51.161 45.842L50.5305 45.6572ZM57.7175 24.1472L58.2175 23.8585L57.8329 23.6364L57.3625 23.7942L57.7175 24.1472ZM44.4446 28.5971L44.0895 28.2441L43.2947 28.5106L43.9446 28.8858L44.4446 28.5971ZM50.1702 31.9028L49.6702 32.1915L50.3201 32.5667L50.7817 32.1078L50.1702 31.9028ZM57.8777 24.2397L58.4892 24.4447L58.7624 24.1731L58.3777 23.951L57.8777 24.2397ZM41.4817 40.4328L42.0919 40.6391L46.336 36.455L45.7258 36.2487L45.1157 36.0424L40.8715 40.2265L41.4817 40.4328ZM45.7258 36.2487L46.2258 35.96L37.4172 30.8744L36.9172 31.1631L36.4172 31.4517L45.2258 36.5374L45.7258 36.2487ZM36.9172 31.1631L36.5599 30.8108L29.3128 33.2611L29.6702 33.6134L30.0275 33.9657L37.2746 31.5154L36.9172 31.1631ZM29.6702 33.6134L30.1702 33.3248L21.5217 28.3316L21.0217 28.6202L20.5217 28.9089L29.1702 33.9021L29.6702 33.6134ZM21.0217 28.6202L21.3419 28.9842L59.6593 17.7496L59.3391 17.3856L59.0189 17.0216L20.7016 28.2562L21.0217 28.6202ZM59.3391 17.3856L58.8391 17.6743L69.4895 23.8233L69.9895 23.5346L70.4895 23.2459L59.8391 17.0969L59.3391 17.3856ZM69.9895 23.5346L69.359 23.3498L49.9001 45.4723L50.5305 45.6572L51.161 45.842L70.62 23.7195L69.9895 23.5346ZM50.5305 45.6572L51.0305 45.3685L41.9817 40.1441L41.4817 40.4328L40.9817 40.7215L50.0305 45.9458L50.5305 45.6572ZM57.7175 24.1472L57.3625 23.7942L44.0895 28.2441L44.4446 28.5971L44.7997 28.9502L58.0726 24.5002L57.7175 24.1472ZM44.4446 28.5971L43.9446 28.8858L49.6702 32.1915L50.1702 31.9028L50.6702 31.6141L44.9446 28.3085L44.4446 28.5971ZM50.1702 31.9028L50.7817 32.1078L58.4892 24.4447L57.8777 24.2397L57.2662 24.0347L49.5587 31.6978L50.1702 31.9028ZM57.8777 24.2397L58.3777 23.951L58.2175 23.8585L57.7175 24.1472L57.2175 24.4359L57.3777 24.5283L57.8777 24.2397Z" fill="black" mask="url(#path-7-outside-2_1027_43)"/>
</g>
<rect x="-1.72064e-08" y="0.288675" width="57.1577" height="57.1577" transform="matrix(0.866025 0.5 -0.866025 0.5 50.25 0.144338)" stroke="black" stroke-width="0.57735"/>
<rect x="0.25" y="0.144338" width="57.1577" height="57.1577" transform="matrix(0.866025 -0.5 2.20305e-08 1 50.0335 57.86)" fill="#A97835"/>
<rect x="0.25" y="0.144338" width="57.1577" height="57.1577" transform="matrix(0.866025 -0.5 2.20305e-08 1 50.0335 57.86)" stroke="black" stroke-width="0.57735"/>
<mask id="path-10-outside-3_1027_43" maskUnits="userSpaceOnUse" x="64.3746" y="48.5181" width="21.6506" height="47.5" fill="black">
<rect fill="white" x="64.3746" y="48.5181" width="21.6506" height="47.5"/>
<path d="M85.3298 75.1293L85.3298 82.9196L65.5105 94.3623L65.5105 61.0051L73.9988 56.1044L73.9988 81.6713L85.3298 75.1293Z"/>
</mask>
<path d="M85.3298 75.1293L85.3298 82.9196L65.5105 94.3623L65.5105 61.0051L73.9988 56.1044L73.9988 81.6713L85.3298 75.1293Z" fill="#27C840"/>
<path d="M85.3298 75.1293L85.8298 74.8406L85.8298 74.2633L85.3298 74.552L85.3298 75.1293ZM85.3298 82.9196L85.3298 83.497L85.8298 83.2083L85.8298 82.6309L85.3298 82.9196ZM65.5105 94.3623L65.0105 94.651L65.0105 95.2283L65.5105 94.9396L65.5105 94.3623ZM65.5105 61.0051L65.5105 60.4277L65.0105 60.7164L65.0105 61.2938L65.5105 61.0051ZM73.9988 56.1044L74.4988 55.8157L74.4988 55.2384L73.9988 55.527L73.9988 56.1044ZM73.9988 81.6713L73.4988 81.96L73.4988 82.5373L73.9988 82.2487L73.9988 81.6713ZM85.3298 75.1293L84.8298 75.418L84.8298 83.2083L85.3298 82.9196L85.8298 82.6309L85.8298 74.8406L85.3298 75.1293ZM85.3298 82.9196L85.3298 82.3423L65.5105 93.7849L65.5105 94.3623L65.5105 94.9396L85.3298 83.497L85.3298 82.9196ZM65.5105 94.3623L66.0105 94.0736L66.0105 60.7164L65.5105 61.0051L65.0105 61.2938L65.0105 94.651L65.5105 94.3623ZM65.5105 61.0051L65.5105 61.5824L73.9988 56.6817L73.9988 56.1044L73.9988 55.527L65.5105 60.4277L65.5105 61.0051ZM73.9988 56.1044L73.4988 56.3931L73.4988 81.96L73.9988 81.6713L74.4988 81.3826L74.4988 55.8157L73.9988 56.1044ZM73.9988 81.6713L73.9988 82.2487L85.3298 75.7067L85.3298 75.1293L85.3298 74.552L73.9988 81.094L73.9988 81.6713Z" fill="black" mask="url(#path-10-outside-3_1027_43)"/>
<defs>
<clipPath id="clip0_1027_43">
<rect width="57.735" height="57.735" transform="matrix(0.866025 0.5 -2.20305e-08 1 0.347876 28.8675)" fill="white"/>
</clipPath>
<clipPath id="clip1_1027_43">
<rect width="57.735" height="57.735" transform="matrix(0.866025 0.5 -0.866025 0.5 50 0)" fill="white"/>
</clipPath>
</defs>
</svg>
